<svg width="512" height="512" viewBox="0 0 512 512" xmlns="http://www.w3.org/2000/svg">
  <defs>
    <linearGradient id="bgE2" x1="0" y1="0" x2="1" y2="1">
      <stop offset="0" stop-color="#101827"/>
      <stop offset="1" stop-color="#070b14"/>
    </linearGradient>
    <filter id="glow" x="-40%" y="-40%" width="180%" height="180%">
      <feGaussianBlur stdDeviation="7"/>
    </filter>
  </defs>

  <rect x="16" y="16" width="480" height="480" rx="110" fill="url(#bgE2)"/>

  <!-- 七段数码管：9:00（琥珀辉光） -->
  <!-- 9 = A B C D F G ｜ 0 = A B C D E F -->
  <g fill="#fbbf24" filter="url(#glow)" opacity="0.85">
    <rect x="94"  y="186" width="44" height="18" rx="9"/><rect x="144" y="204" width="18" height="47" rx="9"/><rect x="144" y="261" width="18" height="47" rx="9"/><rect x="94"  y="308" width="44" height="18" rx="9"/><rect x="76"  y="204" width="18" height="47" rx="9"/><rect x="94"  y="247" width="44" height="18" rx="9"/>
    <rect x="247" y="226" width="18" height="18" rx="6"/><rect x="247" y="268" width="18" height="18" rx="6"/>
    <rect x="314" y="186" width="44" height="18" rx="9"/><rect x="364" y="204" width="18" height="47" rx="9"/><rect x="364" y="261" width="18" height="47" rx="9"/><rect x="314" y="308" width="44" height="18" rx="9"/><rect x="296" y="204" width="18" height="47" rx="9"/>
    <rect x="414" y="186" width="44" height="18" rx="9"/><rect x="464" y="204" width="18" height="47" rx="9"/><rect x="464" y="261" width="18" height="47" rx="9"/><rect x="414" y="308" width="44" height="18" rx="9"/><rect x="396" y="204" width="18" height="47" rx="9"/>
  </g>
  <g fill="#fde68a">
    <rect x="94"  y="186" width="44" height="18" rx="9"/><rect x="144" y="204" width="18" height="47" rx="9"/><rect x="144" y="261" width="18" height="47" rx="9"/><rect x="94"  y="308" width="44" height="18" rx="9"/><rect x="76"  y="204" width="18" height="47" rx="9"/><rect x="94"  y="247" width="44" height="18" rx="9"/>
    <rect x="247" y="226" width="18" height="18" rx="6"/><rect x="247" y="268" width="18" height="18" rx="6"/>
    <rect x="314" y="186" width="44" height="18" rx="9"/><rect x="364" y="204" width="18" height="47" rx="9"/><rect x="364" y="261" width="18" height="47" rx="9"/><rect x="314" y="308" width="44" height="18" rx="9"/><rect x="296" y="204" width="18" height="47" rx="9"/>
    <rect x="414" y="186" width="44" height="18" rx="9"/><rect x="464" y="204" width="18" height="47" rx="9"/><rect x="464" y="261" width="18" height="47" rx="9"/><rect x="414" y="308" width="44" height="18" rx="9"/><rect x="396" y="204" width="18" height="47" rx="9"/>
  </g>
</svg>
